P3
64 48
255
50 53 48 50 53 48 50 53 48 50 53 48 50 53 48 50 53 48 50 53 48 50 53 48 50 53 48 50 53 48 50 53 48 50 53 48 50 53 48 50 53 48 50 53 48 50 53 48 50 53 48 50 53 48 50 53 48 50 53 48 50 53 48 50 53 48 50 53 48 50 53 48 50 53 48 50 53 48 50 53 48 50 53 48 50 53 48 50 53 48 50 53 48 50 53 48 50 53 48 50 53 48 50 53 48 50 53 48 50 53 48 50 53 48 50 53 48 50 53 48 50 53 48 50 53 48 50 53 48 50 53 48 50 53 48 50 53 48 50 53 48 50 53 48 50 53 48 50 53 48 50 53 48 50 53 48 50 53 48 50 53 48 50 53 48 50 53 48 50 53 48 50 53 48 50 53 48 50 53 48 50 53 48 50 53 48 50 53 48 50 53 48 50 53 48 50 53 48 50 53 48 50 53 48 50 53 48 50 53 48 50 53 48 50 53 48 50 53 48 50 53 48 50 53 48 50 53 48 50 53 48 50 53 48 50 53 48 50 53 48 50 53 48 50 53 48 50 53 48 50 53 48 50 53 48 50 53 48 50 53 48 50 53 48 50 53 48 50 53 48 50 53 48 50 53 48 50 53 48 50 53 48 50 53 48 50 53 48 50 53 48 50 53 48 50 53 48 50 53 48 50 53 48 50 53 48 50 53 48 50 53 48 50 53 48 50 53 48 50 53 48 50 53 48 50 53 48 50 53 48 50 53 48 50 53 48 50 53 48 50 53 48 50 53 48 50 53 48 50 53 48 50 53 48 50 53 48 50 53 48 50 53 48 50 53 48 50 53 48 50 53 48 50 53 48 50 53 48 50 53 48 50 53 48 50 53 48 50 53 48 50 53 48 50 53 48 50 53 48 50 53 48 50 53 48 50 53 48 50 53 48 50 53 48 50 53 48 50 53 48 50 53 48 50 53 48 50 53 48 50 53 48 50 53 48 50 53 48 50 53 48 50 53 48 50 53 48 50 53 48 50 53 48 50 53 48 50 53 48 50 53 48 50 53 48 50 53 48 50 53 48 50 53 48 50 53 48 50 53 48 50 53 48 50 53 48 50 53 48 50 53 48 50 53 48 50 53 48 50 53 48 50 53 48 50 53 48 50 53 48 50 53 48 50 53 48 50 53 48 50 53 48 50 53 48 50 53 48 50 53 48 50 53 48 50 53 48 50 53 48 50 53 48 50 53 48 50 53 48 50 53 48 50 53 48 50 53 48 50 53 48 50 53 48 50 53 48 50 53 48 50 53 48 50 53 48 50 53 48 50 53 48 50 53 48 50 53 48 50 53 48 50 53 48 50 53 48 50 53 48 50 53 48 50 53 48 50 53 48 50 53 48 50 53 48 50 53 48 50 53 48 50 53 48 50 53 48 50 53 48 50 53 48 50 53 48 50 53 48 50 53 48 50 53 48 50 53 48 50 53 48 50 53 48 50 53 48 50 53 48 50 53 48 50 53 48 50 53 48 50 53 48 50 53 48 50 53 48 50 53 48 50 53 48 50 53 48 50 53 48 50 53 48 50 53 48 50 53 48 50 53 48 50 53 48 50 53 48 50 53 48 50 53 48 50 53 48 50 53 48 50 53 48 50 53 48 50 53 48 50 53 48 50 53 48 50 53 48 50 53 48 50 53 48 50 53 48 50 53 48 50 53 48 50 53 48 50 53 48 50 53 48 50 53 48 50 53 48 50 53 48 50 53 48 50 53 48 50 53 48 50 53 48 50 53 48 50 53 48 50 53 48 50 53 48 50 53 48 50 53 48 50 53 48 50 53 48 50 53 48 50 53 48 50 53 48 50 53 48 50 53 48 50 53 48 50 53 48 50 53 48 50 53 48 50 53 48 50 53 48 50 53 48 50 53 48 50 53 48 50 53 48 50 53 48 50 53 48 50 53 48 50 53 48 50 53 48 50 53 48 50 53 48 50 53 48 50 53 48 50 53 48 50 53 48 50 53 48 50 53 48 50 53 48 50 53 48 50 53 48 50 53 48 50 53 48 50 53 48 50 53 48 50 53 48 50 53 48 50 53 48 50 53 48 50 53 48 50 53 48 50 53 48 50 53 48 50 53 48 50 53 48 50 53 48 50 53 48 50 53 48 50 53 48 50 53 48 50 53 48 50 53 48 50 53 48 50 53 48 50 53 48 50 53 48 50 53 48 50 53 48 50 53 48 50 53 48 50 53 48 50 53 48 50 53 48 50 53 48 50 53 48 50 53 48 50 53 48 50 53 48 50 53 48 50 53 48 50 53 48 50 53 48 50 53 48 50 53 48 50 53 48 50 53 48 50 53 48 50 53 48 50 53 48 50 53 48 50 53 48 50 53 48 50 53 48 50 53 48 50 53 48 50 53 48 50 53 48 50 53 48 50 53 48 50 53 48 50 53 48 50 53 48 50 53 48 50 53 48 50 53 48 50 53 48 50 53 48 50 53 48 50 53 48 50 53 48 50 53 48 50 53 48 50 53 48 50 53 48 50 53 48 50 53 48 50 53 48 50 53 48 50 53 48 50 53 48 50 53 48 50 53 48 50 53 48 50 53 48 50 53 48 50 53 48 50 53 48 50 53 48 50 53 48 50 53 48 50 53 48 50 53 48 50 53 48 50 53 48 50 53 48 50 53 48 50 53 48 50 53 48 50 53 48 50 53 48 50 53 48 50 53 48 50 53 48 50 53 48 50 53 48 50 53 48 50 53 48 50 53 48 50 53 48 50 53 48 50 53 48 50 53 48 50 53 48 50 53 48 50 53 48 50 53 48 50 53 48 50 53 48 50 53 48 50 53 48 50 53 48 50 53 48 50 53 48 50 53 48 50 53 48 50 53 48 50 53 48 50 53 48 50 53 48 50 53 48 50 53 48 50 53 48 50 53 48 50 53 48 50 53 48 50 53 48 50 53 48 50 53 48 50 53 48 50 53 48 50 53 48 50 53 48 50 53 48 50 53 48 50 53 48 50 53 48 50 53 48 50 53 48 50 53 48 50 53 48 50 53 48 50 53 48 50 53 48 50 53 48 50 53 48 50 53 48 50 53 48 50 53 48 50 53 48 50 53 48 50 53 48 50 53 48 50 53 48 50 53 48 50 53 48 50 53 48 50 53 48 50 53 48 50 53 48 50 53 48 50 53 48 50 53 48 50 53 48 50 53 48 50 53 48 50 53 48 50 53 48 50 53 48 50 53 48 50 53 48 50 53 48 50 53 48 50 53 48 50 53 48 50 53 48 50 53 48 50 53 48 50 53 48 50 53 48 50 53 48 50 53 48 50 53 48 50 53 48 50 53 48 50 53 48 50 53 48 50 53 48 50 53 48 50 53 48 50 53 48 50 53 48 50 53 48 50 53 48 50 53 48 50 53 48 50 53 48 50 53 48 50 53 48 50 53 48 50 53 48 50 53 48 50 53 48 50 53 48 50 53 48 50 53 48 50 53 48 50 53 48 50 53 48 50 53 48 50 53 48 50 53 48 50 53 48 50 53 48 50 53 48 50 53 48 50 53 48 50 53 48 50 53 48 50 53 48 50 53 48 50 53 48 50 53 48 50 53 48 50 53 48 50 53 48 50 53 48 50 53 48 50 53 48 50 53 48 50 53 48 50 53 48 50 53 48 50 53 48 50 53 48 50 53 48 50 53 48 50 53 48 50 53 48 50 53 48 50 53 48 50 53 48 50 53 48 50 53 48 50 53 48 50 53 48 50 53 48 50 53 48 50 53 48 50 53 48 50 53 48 50 53 48 50 53 48 50 53 48 50 53 48 50 53 48 50 53 48 50 53 48 50 53 48 50 53 48 50 53 48 50 53 48 50 53 48 50 53 48 50 53 48 50 53 48 50 53 48 50 53 48 50 53 48 50 53 48 50 53 48 50 53 48 50 53 48 50 53 48 50 53 48 50 53 48 50 53 48 50 53 48 50 53 48 50 53 48 50 53 48 50 53 48 50 53 48 50 53 48 50 53 48 50 53 48 50 53 48 50 53 48 50 53 48 50 53 48 50 53 48 50 53 48 50 53 48 50 53 48 50 53 48 50 53 48 50 53 48 50 53 48 50 53 48 50 53 48 50 53 48 50 53 48 50 53 48 50 53 48 50 53 48 50 53 48 50 53 48 50 53 48 50 53 48 50 53 48 50 53 48 50 53 48 50 53 48 50 53 48 50 53 48 50 53 48 50 53 48 50 53 48 50 53 48 50 53 48 50 53 48 50 53 48 50 53 48 50 53 48 50 53 48 50 53 48 50 53 48 50 53 48 50 53 48 50 53 48 50 53 48 50 53 48 50 53 48 50 53 48 50 53 48 50 53 48 50 53 48 50 53 48 50 53 48 50 53 48 50 53 48 50 53 48 50 53 48 50 53 48 50 53 48 50 53 48 50 53 48 50 53 48 50 53 48 50 53 48 50 53 48 50 53 48 50 53 48 50 53 48 50 53 48 50 53 48 50 53 48 50 53 48 50 53 48 50 53 48 50 53 48 120 15 10 120 15 10 120 15 10 120 15 10 120 15 10 120 15 10 120 15 10 120 15 10 120 15 10 120 15 10 120 15 10 120 15 10 120 15 10 120 15 10 120 15 10 120 15 10 120 15 10 120 15 10 120 15 10 120 15 10 50 53 48 50 53 48 50 53 48 50 53 48 50 53 48 50 53 48 50 53 48 50 53 48 50 53 48 50 53 48 50 53 48 50 53 48 50 53 48 50 53 48 50 53 48 50 53 48 50 53 48 50 53 48 50 53 48 50 53 48 50 53 48 50 53 48 50 53 48 50 53 48 50 53 48 50 53 48 50 53 48 50 53 48 50 53 48 50 53 48 50 53 48 50 53 48 50 53 48 50 53 48 50 53 48 50 53 48 50 53 48 50 53 48 50 53 48 50 53 48 50 53 48 50 53 48 50 53 48 50 53 48 120 15 10 120 15 10 120 15 10 120 15 10 120 15 10 120 15 10 120 15 10 120 15 10 120 15 10 120 15 10 120 15 10 120 15 10 120 15 10 120 15 10 120 15 10 120 15 10 120 15 10 120 15 10 120 15 10 120 15 10 50 53 48 50 53 48 50 53 48 50 53 48 50 53 48 50 53 48 50 53 48 50 53 48 50 53 48 50 53 48 50 53 48 50 53 48 50 53 48 50 53 48 50 53 48 50 53 48 50 53 48 50 53 48 50 53 48 50 53 48 50 53 48 50 53 48 50 53 48 50 53 48 50 53 48 50 53 48 50 53 48 50 53 48 50 53 48 50 53 48 50 53 48 50 53 48 50 53 48 50 53 48 50 53 48 50 53 48 50 53 48 50 53 48 50 53 48 50 53 48 50 53 48 50 53 48 50 53 48 50 53 48 120 15 10 120 15 10 120 15 10 120 15 10 120 15 10 120 15 10 120 15 10 120 15 10 120 15 10 120 15 10 120 15 10 120 15 10 120 15 10 120 15 10 120 15 10 120 15 10 120 15 10 120 15 10 120 15 10 120 15 10 50 53 48 50 53 48 50 53 48 50 53 48 50 53 48 50 53 48 50 53 48 50 53 48 50 53 48 50 53 48 50 53 48 50 53 48 50 53 48 50 53 48 50 53 48 50 53 48 50 53 48 50 53 48 50 53 48 50 53 48 50 53 48 50 53 48 50 53 48 50 53 48 50 53 48 50 53 48 50 53 48 50 53 48 50 53 48 50 53 48 50 53 48 50 53 48 50 53 48 50 53 48 50 53 48 50 53 48 50 53 48 50 53 48 50 53 48 50 53 48 50 53 48 50 53 48 50 53 48 50 53 48 120 15 10 120 15 10 120 15 10 120 15 10 120 15 10 120 15 10 120 15 10 120 15 10 120 15 10 120 15 10 120 15 10 120 15 10 120 15 10 120 15 10 120 15 10 120 15 10 120 15 10 120 15 10 120 15 10 120 15 10 50 53 48 50 53 48 50 53 48 50 53 48 50 53 48 50 53 48 50 53 48 50 53 48 50 53 48 50 53 48 50 53 48 50 53 48 50 53 48 50 53 48 50 53 48 50 53 48 50 53 48 50 53 48 50 53 48 50 53 48 50 53 48 50 53 48 50 53 48 50 53 48 50 53 48 50 53 48 50 53 48 50 53 48 50 53 48 50 53 48 50 53 48 50 53 48 50 53 48 50 53 48 50 53 48 50 53 48 50 53 48 50 53 48 50 53 48 50 53 48 50 53 48 50 53 48 50 53 48 50 53 48 120 15 10 120 15 10 120 15 10 120 15 10 120 15 10 120 15 10 120 15 10 120 15 10 120 15 10 120 15 10 120 15 10 120 15 10 120 15 10 120 15 10 120 15 10 120 15 10 120 15 10 120 15 10 120 15 10 120 15 10 50 53 48 50 53 48 50 53 48 50 53 48 50 53 48 50 53 48 50 53 48 50 53 48 50 53 48 50 53 48 50 53 48 50 53 48 50 53 48 50 53 48 50 53 48 50 53 48 50 53 48 50 53 48 50 53 48 50 53 48 50 53 48 50 53 48 50 53 48 50 53 48 50 53 48 50 53 48 50 53 48 50 53 48 50 53 48 50 53 48 50 53 48 50 53 48 50 53 48 50 53 48 50 53 48 50 53 48 50 53 48 50 53 48 50 53 48 50 53 48 50 53 48 50 53 48 50 53 48 50 53 48 120 15 10 120 15 10 120 15 10 120 15 10 120 15 10 120 15 10 120 15 10 120 15 10 120 15 10 120 15 10 120 15 10 120 15 10 120 15 10 120 15 10 120 15 10 120 15 10 120 15 10 120 15 10 120 15 10 120 15 10 50 53 48 50 53 48 50 53 48 50 53 48 50 53 48 50 53 48 50 53 48 50 53 48 50 53 48 50 53 48 50 53 48 50 53 48 50 53 48 50 53 48 50 53 48 50 53 48 50 53 48 50 53 48 50 53 48 50 53 48 50 53 48 50 53 48 50 53 48 50 53 48 50 53 48 50 53 48 50 53 48 50 53 48 50 53 48 50 53 48 50 53 48 50 53 48 50 53 48 50 53 48 50 53 48 50 53 48 50 53 48 50 53 48 50 53 48 50 53 48 50 53 48 50 53 48 50 53 48 50 53 48 50 53 48 50 53 48 50 53 48 50 53 48 50 53 48 50 53 48 50 53 48 50 53 48 50 53 48 50 53 48 50 53 48 50 53 48 50 53 48 50 53 48 50 53 48 50 53 48 50 53 48 50 53 48 50 53 48 50 53 48 50 53 48 50 53 48 50 53 48 50 53 48 50 53 48 50 53 48 50 53 48 50 53 48 50 53 48 50 53 48 50 53 48 50 53 48 50 53 48 50 53 48 50 53 48 50 53 48 50 53 48 50 53 48 50 53 48 50 53 48 50 53 48 50 53 48 50 53 48 50 53 48 50 53 48 50 53 48 50 53 48 50 53 48 50 53 48 50 53 48 50 53 48 50 53 48 50 53 48 50 53 48 50 53 48 50 53 48 50 53 48 50 53 48 50 53 48 50 53 48 50 53 48 50 53 48 50 53 48 50 53 48 50 53 48 50 53 48 50 53 48 50 53 48 50 53 48 50 53 48 50 53 48 50 53 48 50 53 48 50 53 48 50 53 48 50 53 48 50 53 48 50 53 48 50 53 48 50 53 48 50 53 48 50 53 48 50 53 48 50 53 48 50 53 48 50 53 48 50 53 48 50 53 48 50 53 48 50 53 48 50 53 48 50 53 48 50 53 48 50 53 48 50 53 48 50 53 48 50 53 48 50 53 48 50 53 48 50 53 48 50 53 48 50 53 48 50 53 48 50 53 48 50 53 48 50 53 48 50 53 48 50 53 48 50 53 48 50 53 48 50 53 48 50 53 48 50 53 48 50 53 48 50 53 48 50 53 48 50 53 48 50 53 48 50 53 48 50 53 48 50 53 48 50 53 48 50 53 48 50 53 48 50 53 48 50 53 48 50 53 48 50 53 48 50 53 48 50 53 48 50 53 48 50 53 48 50 53 48 50 53 48 50 53 48 50 53 48 50 53 48 50 53 48 50 53 48 50 53 48 50 53 48 50 53 48 50 53 48 50 53 48 50 53 48 50 53 48 50 53 48 50 53 48 50 53 48 50 53 48 50 53 48 50 53 48 50 53 48 50 53 48 50 53 48 50 53 48 50 53 48 50 53 48 50 53 48 50 53 48 50 53 48 50 53 48 50 53 48 50 53 48 50 53 48 50 53 48 50 53 48 50 53 48 50 53 48 50 53 48 50 53 48 50 53 48 50 53 48 50 53 48 50 53 48 50 53 48 50 53 48 50 53 48 50 53 48 50 53 48 50 53 48 50 53 48 50 53 48 50 53 48 50 53 48 50 53 48 50 53 48 50 53 48 50 53 48 50 53 48 50 53 48 50 53 48 50 53 48 50 53 48 50 53 48 50 53 48 50 53 48 50 53 48 50 53 48 50 53 48 50 53 48 50 53 48 50 53 48 50 53 48 50 53 48 50 53 48 50 53 48 50 53 48 50 53 48 50 53 48 50 53 48 50 53 48 50 53 48 50 53 48 50 53 48 50 53 48 50 53 48 50 53 48 50 53 48 50 53 48 50 53 48 50 53 48 50 53 48 50 53 48 50 53 48 50 53 48 50 53 48 50 53 48 50 53 48 50 53 48 50 53 48 50 53 48 50 53 48 50 53 48 50 53 48 50 53 48 50 53 48 50 53 48 50 53 48 50 53 48 50 53 48 50 53 48 50 53 48 50 53 48 50 53 48 50 53 48 50 53 48 50 53 48 50 53 48 50 53 48 50 53 48 50 53 48 50 53 48 50 53 48 50 53 48 50 53 48 50 53 48 50 53 48 50 53 48 50 53 48 50 53 48 50 53 48 50 53 48 50 53 48 50 53 48 50 53 48 50 53 48 50 53 48 50 53 48 50 53 48 50 53 48 50 53 48 50 53 48 50 53 48 50 53 48 50 53 48 50 53 48 50 53 48 50 53 48 50 53 48 50 53 48 50 53 48 50 53 48 50 53 48 50 53 48 50 53 48 50 53 48 50 53 48 50 53 48 50 53 48 50 53 48 50 53 48 50 53 48 50 53 48 50 53 48 50 53 48 50 53 48 50 53 48 50 53 48 50 53 48 50 53 48 50 53 48 50 53 48 50 53 48 50 53 48 50 53 48 50 53 48 50 53 48 50 53 48 50 53 48 50 53 48 50 53 48 50 53 48 50 53 48 50 53 48 50 53 48 50 53 48 50 53 48 50 53 48 50 53 48 50 53 48 50 53 48 50 53 48 50 53 48 50 53 48 50 53 48 50 53 48 50 53 48 50 53 48 50 53 48 50 53 48 50 53 48 50 53 48 50 53 48 50 53 48 50 53 48 50 53 48 50 53 48 50 53 48 50 53 48 50 53 48 50 53 48 50 53 48 50 53 48 50 53 48 50 53 48 50 53 48 50 53 48 50 53 48 50 53 48 50 53 48 50 53 48 50 53 48 50 53 48 50 53 48 50 53 48 50 53 48 50 53 48 50 53 48 50 53 48 50 53 48 50 53 48 50 53 48 50 53 48 50 53 48 50 53 48 50 53 48 50 53 48 50 53 48 50 53 48 50 53 48 50 53 48 50 53 48 50 53 48 50 53 48 50 53 48 50 53 48 50 53 48 50 53 48 50 53 48 50 53 48 50 53 48 50 53 48 50 53 48 50 53 48 50 53 48 50 53 48 50 53 48 50 53 48 50 53 48 50 53 48 50 53 48 50 53 48 50 53 48 50 53 48 50 53 48 50 53 48 50 53 48 50 53 48 50 53 48 50 53 48 50 53 48 50 53 48 50 53 48 50 53 48 50 53 48 50 53 48 50 53 48 50 53 48 50 53 48 50 53 48 50 53 48 50 53 48 50 53 48 50 53 48 50 53 48 50 53 48 50 53 48 50 53 48 50 53 48 50 53 48 50 53 48 50 53 48 50 53 48 50 53 48 50 53 48 50 53 48 50 53 48 50 53 48 50 53 48 50 53 48 50 53 48 50 53 48 50 53 48 50 53 48 50 53 48 50 53 48 50 53 48 50 53 48 50 53 48 50 53 48 50 53 48 50 53 48 50 53 48 50 53 48 50 53 48 50 53 48 50 53 48 50 53 48 50 53 48 50 53 48 50 53 48 50 53 48 50 53 48 50 53 48 50 53 48 50 53 48 50 53 48 50 53 48 50 53 48 50 53 48 50 53 48 50 53 48 50 53 48 50 53 48 50 53 48 50 53 48 50 53 48 50 53 48 50 53 48 50 53 48 50 53 48 50 53 48 50 53 48 50 53 48 50 53 48 50 53 48 50 53 48 50 53 48 50 53 48 50 53 48 50 53 48 50 53 48 50 53 48 50 53 48 50 53 48 50 53 48 50 53 48 50 53 48 50 53 48 50 53 48 50 53 48 50 53 48 50 53 48 50 53 48 50 53 48 50 53 48 50 53 48 50 53 48 50 53 48 50 53 48 50 53 48 50 53 48 50 53 48 50 53 48 50 53 48 50 53 48 50 53 48 20 202 15 20 202 15 20 202 15 20 202 15 20 202 15 20 202 15 20 202 15 20 202 15 20 202 15 20 202 15 20 202 15 20 202 15 20 202 15 20 202 15 20 202 15 20 202 15 50 53 48 50 53 48 50 53 48 50 53 48 50 53 48 50 53 48 50 53 48 50 53 48 50 53 48 50 53 48 50 53 48 50 53 48 50 53 48 50 53 48 50 53 48 50 53 48 50 53 48 50 53 48 50 53 48 50 53 48 50 53 48 50 53 48 50 53 48 50 53 48 50 53 48 50 53 48 50 53 48 50 53 48 50 53 48 50 53 48 50 53 48 50 53 48 50 53 48 50 53 48 50 53 48 50 53 48 50 53 48 50 53 48 50 53 48 50 53 48 50 53 48 50 53 48 50 53 48 50 53 48 50 53 48 50 53 48 50 53 48 50 53 48 20 202 15 20 202 15 20 202 15 20 202 15 20 202 15 20 202 15 20 202 15 20 202 15 20 202 15 20 202 15 20 202 15 20 202 15 20 202 15 20 202 15 20 202 15 20 202 15 50 53 48 50 53 48 50 53 48 50 53 48 50 53 48 50 53 48 50 53 48 50 53 48 50 53 48 50 53 48 50 53 48 50 53 48 50 53 48 50 53 48 50 53 48 50 53 48 50 53 48 50 53 48 50 53 48 50 53 48 50 53 48 50 53 48 50 53 48 50 53 48 50 53 48 50 53 48 50 53 48 50 53 48 50 53 48 50 53 48 50 53 48 50 53 48 50 53 48 50 53 48 50 53 48 50 53 48 50 53 48 50 53 48 50 53 48 50 53 48 50 53 48 50 53 48 50 53 48 50 53 48 50 53 48 50 53 48 50 53 48 50 53 48 20 202 15 20 202 15 20 202 15 20 202 15 20 202 15 20 202 15 20 202 15 20 202 15 20 202 15 20 202 15 20 202 15 20 202 15 20 202 15 20 202 15 20 202 15 20 202 15 50 53 48 50 53 48 50 53 48 50 53 48 50 53 48 50 53 48 50 53 48 50 53 48 50 53 48 50 53 48 50 53 48 50 53 48 50 53 48 50 53 48 50 53 48 50 53 48 50 53 48 50 53 48 50 53 48 50 53 48 50 53 48 50 53 48 50 53 48 50 53 48 50 53 48 50 53 48 50 53 48 50 53 48 50 53 48 50 53 48 50 53 48 50 53 48 50 53 48 50 53 48 50 53 48 50 53 48 50 53 48 50 53 48 50 53 48 50 53 48 50 53 48 50 53 48 50 53 48 50 53 48 50 53 48 50 53 48 50 53 48 50 53 48 20 202 15 20 202 15 20 202 15 20 202 15 20 202 15 20 202 15 20 202 15 20 202 15 20 202 15 20 202 15 20 202 15 20 202 15 20 202 15 20 202 15 20 202 15 20 202 15 50 53 48 50 53 48 50 53 48 50 53 48 50 53 48 50 53 48 50 53 48 50 53 48 50 53 48 50 53 48 50 53 48 50 53 48 50 53 48 50 53 48 50 53 48 50 53 48 50 53 48 50 53 48 50 53 48 50 53 48 50 53 48 50 53 48 50 53 48 50 53 48 50 53 48 50 53 48 50 53 48 50 53 48 50 53 48 50 53 48 50 53 48 50 53 48 50 53 48 50 53 48 50 53 48 50 53 48 50 53 48 50 53 48 50 53 48 50 53 48 50 53 48 50 53 48 50 53 48 50 53 48 50 53 48 50 53 48 50 53 48 50 53 48 20 202 15 20 202 15 20 202 15 20 202 15 20 202 15 20 202 15 20 202 15 20 202 15 20 202 15 20 202 15 20 202 15 20 202 15 20 202 15 20 202 15 20 202 15 20 202 15 50 53 48 50 53 48 50 53 48 50 53 48 50 53 48 50 53 48 50 53 48 50 53 48 50 53 48 50 53 48 50 53 48 50 53 48 50 53 48 50 53 48 50 53 48 50 53 48 50 53 48 50 53 48 50 53 48 50 53 48 50 53 48 50 53 48 50 53 48 50 53 48 50 53 48 50 53 48 50 53 48 50 53 48 50 53 48 50 53 48 50 53 48 50 53 48 50 53 48 50 53 48 50 53 48 50 53 48 50 53 48 50 53 48 50 53 48 50 53 48 50 53 48 50 53 48 50 53 48 50 53 48 50 53 48 50 53 48 50 53 48 50 53 48 20 202 15 20 202 15 20 202 15 20 202 15 20 202 15 20 202 15 20 202 15 20 202 15 20 202 15 20 202 15 20 202 15 20 202 15 20 202 15 20 202 15 20 202 15 20 202 15 50 53 48 50 53 48 50 53 48 50 53 48 50 53 48 50 53 48 50 53 48 50 53 48 50 53 48 50 53 48 50 53 48 50 53 48 50 53 48 50 53 48 50 53 48 50 53 48 50 53 48 50 53 48 50 53 48 50 53 48 50 53 48 50 53 48 50 53 48 50 53 48 50 53 48 50 53 48 50 53 48 50 53 48 50 53 48 50 53 48 50 53 48 50 53 48 50 53 48 50 53 48 50 53 48 50 53 48 50 53 48 50 53 48 50 53 48 50 53 48 50 53 48 50 53 48 50 53 48 50 53 48 50 53 48 50 53 48 50 53 48 50 53 48 20 202 15 20 202 15 20 202 15 20 202 15 20 202 15 20 202 15 20 202 15 20 202 15 20 202 15 20 202 15 20 202 15 20 202 15 20 202 15 20 202 15 20 202 15 20 202 15 50 53 48 50 53 48 50 53 48 50 53 48 50 53 48 50 53 48 50 53 48 50 53 48 50 53 48 50 53 48 50 53 48 50 53 48 50 53 48 50 53 48 50 53 48 50 53 48 50 53 48 50 53 48 50 53 48 50 53 48 50 53 48 50 53 48 50 53 48 50 53 48 50 53 48 50 53 48 50 53 48 50 53 48 50 53 48 50 53 48 50 53 48 50 53 48 50 53 48 50 53 48 50 53 48 50 53 48 50 53 48 50 53 48 50 53 48 50 53 48 50 53 48 50 53 48 50 53 48 50 53 48 50 53 48 50 53 48 50 53 48 50 53 48 20 202 15 20 202 15 20 202 15 20 202 15 20 202 15 20 202 15 20 202 15 20 202 15 20 202 15 20 202 15 20 202 15 20 202 15 20 202 15 20 202 15 20 202 15 20 202 15 50 53 48 50 53 48 50 53 48 50 53 48 50 53 48 50 53 48 50 53 48 50 53 48 50 53 48 50 53 48 50 53 48 50 53 48 50 53 48 50 53 48 50 53 48 50 53 48 50 53 48 50 53 48 50 53 48 50 53 48 50 53 48 50 53 48 50 53 48 50 53 48 50 53 48 50 53 48 50 53 48 50 53 48 50 53 48 50 53 48 50 53 48 50 53 48 50 53 48 50 53 48 50 53 48 50 53 48 50 53 48 50 53 48 50 53 48 50 53 48 50 53 48 50 53 48 50 53 48 50 53 48 50 53 48 50 53 48 50 53 48 50 53 48 20 202 15 20 202 15 20 202 15 20 202 15 20 202 15 20 202 15 20 202 15 20 202 15 20 202 15 20 202 15 20 202 15 20 202 15 20 202 15 20 202 15 20 202 15 20 202 15 50 53 48 50 53 48 50 53 48 50 53 48 50 53 48 50 53 48 50 53 48 50 53 48 50 53 48 50 53 48 50 53 48 50 53 48 50 53 48 50 53 48 50 53 48 50 53 48 50 53 48 50 53 48 50 53 48 50 53 48 50 53 48 50 53 48 50 53 48 50 53 48 50 53 48 50 53 48 50 53 48 50 53 48 50 53 48 50 53 48 50 53 48 50 53 48 50 53 48 50 53 48 50 53 48 50 53 48 50 53 48 50 53 48 50 53 48 50 53 48 50 53 48 50 53 48 50 53 48 50 53 48 50 53 48 50 53 48 50 53 48 50 53 48 20 202 15 20 202 15 20 202 15 20 202 15 20 202 15 20 202 15 20 202 15 20 202 15 20 202 15 20 202 15 20 202 15 20 202 15 20 202 15 20 202 15 20 202 15 20 202 15 50 53 48 50 53 48 50 53 48 50 53 48 50 53 48 50 53 48 50 53 48 50 53 48 50 53 48 50 53 48 50 53 48 50 53 48 50 53 48 50 53 48 50 53 48 50 53 48 50 53 48 50 53 48 50 53 48 50 53 48 50 53 48 50 53 48 50 53 48 50 53 48 50 53 48 50 53 48 50 53 48 50 53 48 50 53 48 50 53 48 50 53 48 50 53 48 50 53 48 50 53 48 50 53 48 50 53 48 50 53 48 50 53 48 50 53 48 50 53 48 50 53 48 50 53 48 50 53 48 50 53 48 50 53 48 50 53 48 50 53 48 50 53 48 20 202 15 20 202 15 20 202 15 20 202 15 20 202 15 20 202 15 20 202 15 20 202 15 20 202 15 20 202 15 20 202 15 20 202 15 20 202 15 20 202 15 20 202 15 20 202 15 50 53 48 50 53 48 50 53 48 50 53 48 50 53 48 50 53 48 50 53 48 50 53 48 50 53 48 50 53 48 50 53 48 50 53 48 50 53 48 50 53 48 50 53 48 50 53 48 50 53 48 50 53 48 50 53 48 50 53 48 50 53 48 50 53 48 50 53 48 50 53 48 50 53 48 50 53 48 50 53 48 50 53 48 50 53 48 50 53 48 50 53 48 50 53 48 50 53 48 50 53 48 50 53 48 50 53 48 50 53 48 50 53 48 50 53 48 50 53 48 50 53 48 50 53 48 50 53 48 50 53 48 50 53 48 50 53 48 50 53 48 50 53 48 20 202 15 20 202 15 20 202 15 20 202 15 20 202 15 20 202 15 20 202 15 20 202 15 20 202 15 20 202 15 20 202 15 20 202 15 20 202 15 20 202 15 20 202 15 20 202 15 50 53 48 50 53 48 50 53 48 50 53 48 50 53 48 50 53 48 50 53 48 50 53 48 50 53 48 50 53 48 50 53 48 50 53 48 50 53 48 50 53 48 50 53 48 50 53 48 50 53 48 50 53 48 50 53 48 50 53 48 50 53 48 50 53 48 50 53 48 50 53 48 50 53 48 50 53 48 50 53 48 50 53 48 50 53 48 50 53 48 50 53 48 50 53 48 50 53 48 50 53 48 50 53 48 50 53 48 50 53 48 50 53 48 50 53 48 50 53 48 50 53 48 50 53 48 50 53 48 50 53 48 50 53 48 50 53 48 50 53 48 50 53 48 20 202 15 20 202 15 20 202 15 20 202 15 20 202 15 20 202 15 20 202 15 20 202 15 20 202 15 20 202 15 20 202 15 20 202 15 20 202 15 20 202 15 20 202 15 20 202 15 50 53 48 50 53 48 50 53 48 50 53 48 50 53 48 50 53 48 50 53 48 50 53 48 50 53 48 50 53 48 50 53 48 50 53 48 50 53 48 50 53 48 50 53 48 50 53 48 50 53 48 50 53 48 50 53 48 50 53 48 50 53 48 50 53 48 50 53 48 50 53 48 50 53 48 50 53 48 50 53 48 50 53 48 50 53 48 50 53 48 50 53 48 50 53 48 50 53 48 50 53 48 50 53 48 50 53 48 50 53 48 50 53 48 50 53 48 50 53 48 50 53 48 50 53 48 50 53 48 50 53 48 50 53 48 50 53 48 50 53 48 50 53 48 20 202 15 20 202 15 20 202 15 20 202 15 20 202 15 20 202 15 20 202 15 20 202 15 20 202 15 20 202 15 20 202 15 20 202 15 20 202 15 20 202 15 20 202 15 20 202 15 50 53 48 50 53 48 50 53 48 50 53 48 50 53 48 50 53 48 50 53 48 50 53 48 50 53 48 50 53 48 50 53 48 50 53 48 50 53 48 50 53 48 50 53 48 50 53 48 50 53 48 50 53 48 50 53 48 50 53 48 50 53 48 50 53 48 50 53 48 50 53 48 50 53 48 50 53 48 50 53 48 50 53 48 50 53 48 50 53 48 50 53 48 50 53 48 50 53 48 50 53 48 50 53 48 50 53 48 50 53 48 50 53 48 50 53 48 50 53 48 50 53 48 50 53 48 50 53 48 50 53 48 50 53 48 50 53 48 50 53 48 50 53 48 20 202 15 20 202 15 20 202 15 20 202 15 20 202 15 20 202 15 20 202 15 20 202 15 20 202 15 20 202 15 20 202 15 20 202 15 20 202 15 20 202 15 20 202 15 20 202 15 50 53 48 50 53 48 50 53 48 50 53 48 50 53 48 50 53 48 50 53 48 50 53 48 50 53 48 50 53 48 50 53 48 50 53 48 50 53 48 50 53 48 50 53 48 50 53 48 50 53 48 50 53 48 50 53 48 50 53 48 50 53 48 50 53 48 50 53 48 50 53 48 50 53 48 50 53 48 50 53 48 50 53 48 50 53 48 50 53 48 50 53 48 50 53 48 50 53 48 50 53 48 50 53 48 50 53 48 50 53 48 50 53 48 50 53 48 50 53 48 50 53 48 50 53 48 50 53 48 50 53 48 50 53 48 50 53 48 50 53 48 50 53 48 20 202 15 20 202 15 20 202 15 20 202 15 20 202 15 20 202 15 20 202 15 20 202 15 20 202 15 20 202 15 20 202 15 20 202 15 20 202 15 20 202 15 20 202 15 20 202 15 50 53 48 50 53 48 50 53 48 50 53 48 50 53 48 50 53 48 50 53 48 50 53 48 50 53 48 50 53 48 50 53 48 50 53 48 50 53 48 50 53 48 50 53 48 50 53 48 50 53 48 50 53 48 50 53 48 50 53 48 50 53 48 50 53 48 50 53 48 50 53 48 50 53 48 50 53 48 50 53 48 50 53 48 50 53 48 50 53 48 50 53 48 50 53 48 50 53 48 50 53 48 50 53 48 50 53 48 50 53 48 50 53 48 50 53 48 50 53 48 50 53 48 50 53 48 50 53 48 50 53 48 50 53 48 50 53 48 50 53 48 50 53 48 20 202 15 20 202 15 20 202 15 20 202 15 20 202 15 20 202 15 20 202 15 20 202 15 20 202 15 20 202 15 20 202 15 20 202 15 20 202 15 20 202 15 20 202 15 20 202 15 50 53 48 50 53 48 50 53 48 50 53 48 50 53 48 50 53 48 50 53 48 50 53 48 50 53 48 50 53 48 50 53 48 50 53 48 50 53 48 50 53 48 50 53 48 50 53 48 50 53 48 50 53 48 50 53 48 50 53 48 50 53 48 50 53 48 50 53 48 50 53 48 50 53 48 50 53 48 50 53 48 50 53 48 50 53 48 50 53 48 50 53 48 50 53 48 50 53 48 50 53 48 50 53 48 50 53 48 50 53 48 50 53 48 50 53 48 50 53 48 50 53 48 50 53 48 50 53 48 50 53 48 50 53 48 50 53 48 50 53 48 50 53 48 20 202 15 20 202 15 20 202 15 20 202 15 20 202 15 20 202 15 20 202 15 20 202 15 20 202 15 20 202 15 20 202 15 20 202 15 20 202 15 20 202 15 20 202 15 20 202 15 50 53 48 50 53 48 50 53 48 50 53 48 50 53 48 50 53 48 50 53 48 50 53 48 50 53 48 50 53 48 50 53 48 50 53 48 50 53 48 50 53 48 50 53 48 50 53 48 50 53 48 50 53 48 50 53 48 50 53 48 50 53 48 50 53 48 50 53 48 50 53 48 50 53 48 50 53 48 50 53 48 50 53 48 50 53 48 50 53 48 50 53 48 50 53 48 50 53 48 50 53 48 50 53 48 50 53 48 50 53 48 50 53 48 50 53 48 50 53 48 50 53 48 50 53 48 50 53 48 50 53 48 50 53 48 50 53 48 50 53 48 50 53 48 20 202 15 20 202 15 20 202 15 20 202 15 20 202 15 20 202 15 20 202 15 20 202 15 20 202 15 20 202 15 20 202 15 20 202 15 20 202 15 20 202 15 20 202 15 20 202 15 50 53 48 50 53 48 50 53 48 50 53 48 50 53 48 50 53 48 50 53 48 50 53 48 50 53 48 50 53 48 50 53 48 50 53 48 50 53 48 50 53 48 50 53 48 50 53 48 50 53 48 50 53 48 50 53 48 50 53 48 50 53 48 50 53 48 50 53 48 50 53 48 50 53 48 50 53 48 50 53 48 50 53 48 50 53 48 50 53 48 50 53 48 50 53 48 50 53 48 50 53 48 50 53 48 50 53 48 50 53 48 50 53 48 50 53 48 50 53 48 50 53 48 50 53 48 50 53 48 50 53 48 50 53 48 50 53 48 50 53 48 50 53 48 20 202 15 20 202 15 20 202 15 20 202 15 20 202 15 20 202 15 20 202 15 20 202 15 20 202 15 20 202 15 20 202 15 20 202 15 20 202 15 20 202 15 20 202 15 20 202 15 50 53 48 50 53 48 50 53 48 50 53 48 50 53 48 50 53 48 50 53 48 50 53 48 50 53 48 50 53 48 50 53 48 50 53 48 50 53 48 50 53 48 50 53 48 50 53 48 50 53 48 50 53 48 50 53 48 50 53 48 50 53 48 50 53 48 50 53 48 50 53 48 50 53 48 50 53 48 50 53 48 50 53 48 50 53 48 50 53 48 50 53 48 50 53 48 50 53 48 50 53 48 50 53 48 50 53 48 50 53 48 50 53 48 50 53 48 50 53 48 50 53 48 50 53 48 50 53 48 50 53 48 50 53 48 50 53 48 50 53 48 50 53 48 20 202 15 20 202 15 20 202 15 20 202 15 20 202 15 20 202 15 20 202 15 20 202 15 20 202 15 20 202 15 20 202 15 20 202 15 20 202 15 20 202 15 20 202 15 20 202 15 50 53 48 50 53 48 50 53 48 50 53 48 50 53 48 50 53 48 50 53 48 50 53 48 50 53 48 50 53 48 50 53 48 50 53 48 50 53 48 50 53 48 50 53 48 50 53 48 50 53 48 50 53 48 50 53 48 50 53 48 50 53 48 50 53 48 50 53 48 50 53 48 50 53 48 50 53 48 50 53 48 50 53 48 50 53 48 50 53 48 50 53 48 50 53 48 50 53 48 50 53 48 50 53 48 50 53 48 50 53 48 50 53 48 50 53 48 50 53 48 50 53 48 50 53 48 50 53 48 50 53 48 50 53 48 50 53 48 50 53 48 50 53 48 20 202 15 20 202 15 20 202 15 20 202 15 20 202 15 20 202 15 20 202 15 20 202 15 20 202 15 20 202 15 20 202 15 20 202 15 20 202 15 20 202 15 20 202 15 20 202 15 50 53 48 50 53 48 50 53 48 50 53 48 50 53 48 50 53 48 50 53 48 50 53 48 50 53 48 50 53 48 50 53 48 50 53 48 50 53 48 50 53 48 50 53 48 50 53 48 50 53 48 50 53 48 50 53 48 50 53 48 50 53 48 50 53 48 50 53 48 50 53 48 50 53 48 50 53 48 50 53 48 50 53 48 50 53 48 50 53 48 50 53 48 50 53 48 50 53 48 50 53 48 50 53 48 50 53 48 50 53 48 50 53 48 50 53 48 50 53 48 50 53 48 50 53 48 50 53 48 50 53 48 50 53 48 50 53 48 50 53 48 50 53 48 50 53 48 50 53 48 50 53 48 50 53 48 50 53 48 50 53 48 50 53 48 50 53 48 50 53 48 50 53 48 50 53 48 50 53 48 50 53 48 50 53 48 50 53 48 50 53 48 50 53 48 50 53 48 50 53 48 50 53 48 50 53 48 50 53 48 50 53 48 50 53 48 50 53 48 50 53 48 50 53 48 50 53 48 50 53 48 50 53 48 50 53 48 50 53 48 50 53 48 50 53 48 50 53 48 50 53 48 50 53 48 50 53 48 50 53 48 50 53 48 50 53 48 50 53 48 50 53 48 50 53 48 50 53 48 50 53 48 50 53 48 50 53 48 50 53 48 50 53 48 50 53 48 50 53 48 50 53 48 50 53 48 50 53 48 50 53 48 50 53 48 50 53 48 50 53 48 50 53 48 50 53 48 50 53 48 50 53 48 50 53 48 50 53 48 50 53 48 50 53 48 50 53 48 50 53 48 50 53 48 50 53 48 50 53 48 50 53 48 50 53 48 50 53 48 50 53 48 50 53 48 50 53 48 50 53 48 50 53 48 50 53 48 50 53 48 50 53 48 50 53 48 50 53 48 50 53 48 50 53 48 50 53 48 50 53 48 50 53 48 50 53 48 50 53 48 50 53 48 50 53 48 50 53 48 50 53 48 50 53 48 50 53 48 50 53 48 50 53 48 50 53 48 50 53 48 50 53 48 